# xmcd
#
# Track frame offsets:
#	150
#	24784
#	53891
#	78167
#	99842
#	120772
#	138263
#	161880
#	188315
#	212372
#
# Disc length: 3094 seconds
#
# Revision: 2
# Processed by: cddbd v1.5.2PL0 Copyright (c) Steve Scherf et al.
# Submitted via: EZCDAudioConverter 8.0.2.1
#
DISCID=650c140a
DTITLE=Various Artist - Liên Khúc: Phượng Hoàng
DYEAR=2010
DGENRE=Americana - Roots
TTITLE0=Lâm Nhật Tiến, Nguyễn Hồng Nhung - Medley Đoàn Chuẩn - Từ Linh
TTITLE1=Quốc Khanh, Hồ Hoàng Yến - Medley Vũ Thành An: Bài không tên số 3, Bài
TTITLE1=không tên cuối cùng
TTITLE2=Lệ Thu, Thiên Kim - Medley Trịnh Công Sơn: Diễm xưa, Hạ trắng
TTITLE3=Nguyên Khang, Quốc Khanh, Đoàn Phi, Mai Thanh Sơn - Medley Phượng Hoàn
TTITLE3=g: Yêu em, Tôi muốn, Hãy ngước mặt nhìn đời, Yêu đời yêu người, Huyền 
TTITLE3=thoại người con gái
TTITLE4=Diễm Liên and Nguyên Khang - Vũng lầy của chúng ta
TTITLE5=Mai Thanh Sơn, Lê Anh Quân - Lá xanh mùa hè
TTITLE6=Anh Khoa, Y Phương - Medley Nam Lộc: Người di tản buồn and Sàigòn ơi, vĩ
TTITLE6=nh biệt
TTITLE7=Lâm Thúy Vân, Việt Dzũng - Medley: Lời kinh đêm, Một chút quà cho quê 
TTITLE7=hương
TTITLE8=Hợp Ca Asia Entertainment - Tình yêu, Tình người
TTITLE9=Ánh Minh, Mai Lệ Huyền - Đêm đô thị
EXTD=
EXTT0=
EXTT1=
EXTT2=
EXTT3=
EXTT4=
EXTT5=
EXTT6=
EXTT7=
EXTT8=
EXTT9=
PLAYORDER=
